# xmcd CD database file
#
# Track frame offsets:
#	150
#	14231
#	29735
#	44625
#	58651
#	73095
#	87595
#	101064
#	114979
#	128977
#	144201
#	154717
#	164619
#	179119
#	194511
#	208398
#	223288
#	238317
#	255715
#	270939
#
# Disc length: 3786 seconds
#
# Revision: 0
# Processed by: cddbd v1.5.2PL0 Copyright (c) Steve Scherf et al.
# Submitted via: CDex 1.51
#
DISCID=4a0ec814
DTITLE=Piaf - Edith - La vie en rose 1
DYEAR=1900
DGENRE=Luister
TTITLE0=La vie en rose
TTITLE1=Hymne a l'amour
TTITLE2=Padam padam
TTITLE3=Jezebel
TTITLE4=Plus bleu que tes yeux
TTITLE5=Les amants de Paris
TTITLE6=Bal dans ma rue
TTITLE7=Un refrain courait dans la rue
TTITLE8=La fête continue
TTITLE9=Je hais les dimanches
TTITLE10=Rien de rien
TTITLE11=Le chant du pirate
TTITLE12=Le prisonnier de la tour
TTITLE13=L'orgue des amoureux
TTITLE14=Le chevalier de Paris
TTITLE15=Cést un gars
TTITLE16=Cést d'la faute a tes yeux
TTITLE17=Chanson bleue
TTITLE18=Une enfant
TTITLE19=La rue aux chansons
EXTD=
EXTT0=
EXTT1=
EXTT2=
EXTT3=
EXTT4=
EXTT5=
EXTT6=
EXTT7=
EXTT8=
EXTT9=
EXTT10=
EXTT11=
EXTT12=
EXTT13=
EXTT14=
EXTT15=
EXTT16=
EXTT17=
EXTT18=
EXTT19=
PLAYORDER=
